<svg width="89" height="20" viewBox="0 0 89 20" fill="none" xmlns="http://www.w3.org/2000/svg">
<g id="&#208;&#187;&#208;&#190;&#208;&#179;&#208;&#190;" clip-path="url(#clip0_221_2771)">
<g id="surface1">
<g id="Clip path group">
<mask id="mask0_221_2771" style="mask-type:luminance" maskUnits="userSpaceOnUse" x="0" y="7" width="89" height="13">
<g id="clip1">
<path id="Vector" d="M0 7.75586H89V20H0V7.75586Z" fill="white"/>
</g>
</mask>
<g mask="url(#mask0_221_2771)">
<g id="Group">
<path id="Vector_2" fill-rule="evenodd" clip-rule="evenodd" d="M7.07348 8.0516H1.14309L0.0136719 19.8387H9.2422L9.49543 17.5065H6.18012L7.07348 8.0516ZM23.5347 13.9206C23.9179 9.58896 21.7124 7.87305 18.0759 7.87305C17.3689 7.87305 16.6619 7.87305 15.9556 7.87305C12.563 7.87305 10.0926 9.68114 9.59353 13.6319C9.10424 17.5484 11.0387 19.9895 14.836 19.9895C15.4841 19.9895 16.1322 19.9895 16.7803 19.9895C20.2955 19.9895 23.203 18.4741 23.5347 13.9206ZM15.126 16.3243C15.0561 16.987 15.3571 17.5626 16.1089 17.5626C16.8538 17.5626 17.497 17.1971 17.5216 16.3282C17.6675 14.6845 17.8128 13.0401 17.9581 11.3964C18.0213 10.7273 17.5718 10.2954 16.9182 10.2954C16.1782 10.2954 15.6938 10.7583 15.641 11.3094L15.126 16.3243ZM69.6774 7.98972H61.5684L60.4096 19.8387H66.0132L66.8949 10.3767H68.1672C68.7129 10.3767 69.2034 10.7363 69.1243 11.3571L68.3487 19.8387H73.978L74.7162 12.4136C75.1399 9.18222 73.1159 7.98972 69.6774 7.98972ZM89.0032 8.0516H82.4842C78.3908 8.0516 75.9352 9.22476 75.4649 12.7578C75.3692 13.4804 75.2877 14.3706 75.2613 15.0932C75.1418 18.3387 76.4551 19.8387 80.0494 19.8387H88.0216L88.7285 12.8809H83.2292L82.827 17.1958H81.486C80.7153 17.1958 80.5871 16.6221 80.6472 15.993C80.7956 14.5433 80.9434 13.0923 81.093 11.6414C81.1476 10.8079 81.589 10.3831 82.3015 10.3831H88.8352L89.0032 8.0516ZM60.2563 8.0516H54.3265L53.1683 19.8387H59.1275L60.2563 8.0516ZM53.8691 8.0516H48.5586L45.3678 11.6845L45.721 8.0516H39.79L38.6317 19.8387H44.6069L44.9404 15.8551L47.1692 19.8387H52.7894L49.1767 13.3237L53.8691 8.0516ZM33.1949 7.98972H25.0854L23.9265 19.8387H29.5301L30.4124 10.3767H31.6841C32.2304 10.3767 32.7203 10.7363 32.6412 11.3571L31.865 19.8387H37.4949L38.2332 12.4136C38.6569 9.18222 36.6328 7.98972 33.1949 7.98972Z" fill="black"/>
</g>
</g>
</g>
<path id="Vector_3" fill-rule="evenodd" clip-rule="evenodd" d="M63.5529 -0.0117188L54.9915 2.36748L54.5059 7.2445L63.0661 4.98905L63.5529 -0.0117188Z" fill="#24378C"/>
</g>
</g>
<defs>
<clipPath id="clip0_221_2771">
<rect width="89" height="20" fill="white"/>
</clipPath>
</defs>
</svg>
